<?xml version="1.0" standalone="no"?>
<!DOCTYPE svg PUBLIC "-//W3C//DTD SVG 20010904//EN"
 "http://www.w3.org/TR/2001/REC-SVG-20010904/DTD/svg10.dtd">
<svg version="1.0" xmlns="http://www.w3.org/2000/svg"
 width="145.000000pt" height="145.000000pt" viewBox="0 0 145.000000 145.000000"
 preserveAspectRatio="xMidYMid meet">
<metadata>
Created by potrace 1.14, written by Peter Selinger 2001-2017
</metadata>
<g transform="translate(0.000000,145.000000) scale(0.100000,-0.100000)"
fill="#000000" stroke="none">
<path d="M664 1369 c-167 -22 -249 -96 -294 -264 -19 -71 -21 -672 -3 -770 18
-93 54 -166 108 -213 61 -54 128 -74 255 -78 138 -4 218 20 282 87 79 81 99
140 104 302 l3 108 -142 -3 -141 -3 -1 -106 c-2 -129 -14 -165 -62 -178 -50
-14 -89 3 -110 47 -16 33 -18 77 -17 417 0 430 2 438 69 451 92 17 117 -17
119 -161 1 -57 5 -107 9 -111 5 -5 178 -8 261 -5 12 1 14 20 11 104 -8 263
-103 367 -345 380 -30 2 -78 0 -106 -4z"/>
</g>
</svg>
